<svg id="Capa_1" data-name="Capa 1" xmlns="http://www.w3.org/2000/svg" viewBox="0 0 140 36"><defs><style>.cls-1{fill:#b406d5;}.cls-2{fill:#00beff;}.cls-3{fill:#fff;}.cls-4{fill:#3a34ff;}.cls-5{fill:#090b18;}</style></defs><polygon class="cls-1" points="37.39 13.82 37.39 22.82 28.21 29.24 28.21 20.25 31.43 18 37.39 13.82"/><polygon class="cls-2" points="37.39 13.18 37.39 13.82 31.43 18 28.21 15.75 25 18 19.04 13.82 19.04 13.18 28.21 6.76 37.39 13.18"/><polygon class="cls-3" points="31.43 18 28.21 20.25 25 18 28.21 15.75 31.43 18"/><polygon class="cls-4" points="28.21 20.25 28.21 29.24 19.04 22.82 19.04 13.82 25 18 28.21 20.25"/><path class="cls-5" d="M28.21,34.79l-13.7-9.6V10.81l13.7-9.6,13.71,9.6v3.82a.86.86,0,1,1-1.72,0V11.7l-12-8.39-12,8.39V24.3l12,8.39,12-8.39V21.37a.86.86,0,0,1,1.72,0v3.82Z"/><path class="cls-5" d="M28.21,5.71l-10,7V23.26L27.73,30h0l.48.34,10-7V12.74Zm8.14,7.79L31.43,17,28.21,14.7,25,17,20.08,13.5l8.13-5.69Zm-8.13,5.7L26.5,18l1.72-1.2L29.93,18ZM19.9,15.47l7.46,5.23v6.89L19.9,22.37Zm9.17,12.12V20.7l7.46-5.23v6.9Z"/><path class="cls-5" d="M47.48,18.7a6.22,6.22,0,0,1,11.58-3.17l-2.05,1a4.12,4.12,0,0,0-3.29-1.88,3.91,3.91,0,0,0-3.94,4.06,3.91,3.91,0,0,0,3.94,4.06A4.12,4.12,0,0,0,57,20.88l2.05,1A6.22,6.22,0,0,1,47.48,18.7"/><path class="cls-5" d="M72.22,12.66V24.75h-2.3v-1.5a4.69,4.69,0,0,1-3.56,1.69,5,5,0,0,1-5-5.32v-7h2.35v6.89a3.1,3.1,0,1,0,6.19,0V12.66Z"/><path class="cls-5" d="M90.4,8.57a1.31,1.31,0,1,1,1.31,1.3,1.3,1.3,0,0,1-1.31-1.3m.15,4.08h2.29v12.1H90.55Z"/><path class="cls-5" d="M95.36,18.7a6.22,6.22,0,0,1,11.58-3.17l-2.06,1a4.09,4.09,0,0,0-3.28-1.88,3.92,3.92,0,0,0-3.95,4.06,3.92,3.92,0,0,0,3.95,4.06,4.09,4.09,0,0,0,3.28-1.88l2.06,1A6.22,6.22,0,0,1,95.36,18.7"/><path class="cls-5" d="M108.39,18.7a6.24,6.24,0,1,1,6.24,6.24,6.24,6.24,0,0,1-6.24-6.24m10.25,0a3.94,3.94,0,1,0-7.88,0,3.94,3.94,0,1,0,7.88,0"/><path class="cls-5" d="M81.7,12.46A6.23,6.23,0,0,0,77.61,14V6.75l-2.3,1.53V24.75h2.3V23.42a6.24,6.24,0,1,0,4.09-11m-.08,10.3a3.93,3.93,0,0,1-3.94-4.06,3.94,3.94,0,1,1,7.88,0,3.91,3.91,0,0,1-3.94,4.06"/><polygon class="cls-5" points="123.19 24.75 125.49 24.75 125.49 6.75 123.19 8.28 123.19 24.75"/></svg>