<svg id="Capa_1" data-name="Capa 1" xmlns="http://www.w3.org/2000/svg" viewBox="0 0 109.81 36"><defs><style>.cls-1{fill:#c501cf;}.cls-2{fill:#00b0ff;}.cls-3{fill:#fff;}.cls-4{fill:#3b31ff;}.cls-5{fill:#000111;}</style></defs><polygon class="cls-1" points="23.12 13.93 23.12 22.69 14.18 28.95 14.18 20.19 17.31 18 23.12 13.93"/><polygon class="cls-2" points="23.12 13.3 23.12 13.93 17.31 18 14.18 15.81 11.05 18 5.24 13.93 5.24 13.3 14.18 7.04 23.12 13.3"/><polygon class="cls-3" points="17.31 18 14.18 20.19 11.05 18 14.18 15.81 17.31 18"/><polygon class="cls-4" points="14.18 20.19 14.18 28.95 5.24 22.69 5.24 13.93 11.05 18 14.18 20.19"/><path class="cls-2" d="M14.18,34.36.83,25V11L14.18,1.64,27.54,11v3.72a.84.84,0,1,1-1.68,0V11.86L14.18,3.68,2.5,11.86V24.14l11.68,8.18L25.9,24.14V21.29a.84.84,0,1,1,1.68,0V25Z"/><path class="cls-5" d="M14.18,6,4.41,12.85V23.13l9.3,6.52h0l.47.33L24,23.13V12.87Zm7.93,7.6L17.31,17l-3.13-2.19L11.05,17,6.26,13.64l7.92-5.55Zm-7.93,5.55L12.51,18l1.67-1.17L15.9,18Zm-8.1-3.63,7.26,5.09v6.72L6.08,22.24ZM15,27.33v-6.7l7.27-5.09v6.72Z"/><path class="cls-3" d="M33,18.68A6.06,6.06,0,0,1,44.24,15.6l-2,1A4,4,0,0,0,39,14.76a3.81,3.81,0,0,0-3.84,3.78v.22a3.83,3.83,0,0,0,3.62,4H39a4,4,0,0,0,3.21-1.84l2,1A6.06,6.06,0,0,1,33,18.83Z"/><path class="cls-3" d="M57.06,12.79V24.57H54.82V23.11a4.54,4.54,0,0,1-3.46,1.65,4.9,4.9,0,0,1-4.86-5v-7h2.29v6.72a3,3,0,0,0,6,0V12.79Z"/><path class="cls-3" d="M74.78,8.81a1.27,1.27,0,1,1,1.27,1.27h0A1.27,1.27,0,0,1,74.78,8.81Zm.14,4h2.24V24.57H74.9Z"/><path class="cls-3" d="M79.61,18.68A6.06,6.06,0,0,1,90.9,15.6l-2,1a4,4,0,0,0-3.2-1.84,3.81,3.81,0,0,0-3.84,3.78v.22a3.83,3.83,0,0,0,3.62,4h.22a4,4,0,0,0,3.2-2l2,1a6.06,6.06,0,0,1-11.29-3.09Z"/><path class="cls-3" d="M92.31,18.68a6.08,6.08,0,1,1,6.08,6.08,6.08,6.08,0,0,1-6.08-6.08Zm10,0a3.84,3.84,0,1,0-3.84,3.84A3.83,3.83,0,0,0,102.31,18.68Z"/><path class="cls-3" d="M66.3,12.6a6.12,6.12,0,0,0-4,1.49V7L60.08,8.53v16h2.23V23.28a6.08,6.08,0,1,0,4-10.68Zm-.07,10a3.83,3.83,0,0,1-3.84-3.82V18.6a3.84,3.84,0,1,1,7.68,0,3.8,3.8,0,0,1-3.57,4h-.27Z"/><polygon class="cls-3" points="106.73 24.57 108.97 24.57 108.97 7.04 106.73 8.53 106.73 24.57"/></svg>